<?xml version="1.0" encoding="UTF-8" standalone="no"?>
<svg
   xmlns:dc="http://purl.org/dc/elements/1.1/"
   xmlns:cc="http://creativecommons.org/ns#"
   xmlns:rdf="http://www.w3.org/1999/02/22-rdf-syntax-ns#"
   xmlns:svg="http://www.w3.org/2000/svg"
   xmlns="http://www.w3.org/2000/svg"
   xmlns:sodipodi="http://sodipodi.sourceforge.net/DTD/sodipodi-0.dtd"
   xmlns:inkscape="http://www.inkscape.org/namespaces/inkscape"
   width="264.57101"
   height="300"
   viewBox="0 0 70.001079 79.375002"
   version="1.1"
   id="svg1565"
   inkscape:version="1.0 (b51213c273, 2020-08-10)"
   sodipodi:docname="star_yellow.svg">
  <defs
     id="defs1559" />
  <sodipodi:namedview
     id="base"
     pagecolor="#ffffff"
     bordercolor="#666666"
     borderopacity="1.0"
     inkscape:pageopacity="0.0"
     inkscape:pageshadow="2"
     inkscape:zoom="1.979899"
     inkscape:cx="153.84472"
     inkscape:cy="174.67697"
     inkscape:document-units="mm"
     inkscape:current-layer="layer1"
     inkscape:document-rotation="0"
     showgrid="false"
     units="px"
     inkscape:window-width="1428"
     inkscape:window-height="1044"
     inkscape:window-x="205"
     inkscape:window-y="3"
     inkscape:window-maximized="0" />
  <metadata
     id="metadata1562">
    <rdf:RDF>
      <cc:Work
         rdf:about="">
        <dc:format>image/svg+xml</dc:format>
        <dc:type
           rdf:resource="http://purl.org/dc/dcmitype/StillImage" />
        <dc:title></dc:title>
      </cc:Work>
    </rdf:RDF>
  </metadata>
  <g
     inkscape:label="Layer 1"
     inkscape:groupmode="layer"
     id="layer1">
    <g
       id="g2150"
       transform="matrix(1.1817172,0,0,1.1817172,2.2461013,9.9963836)"
       style="fill:#f6ae2d;fill-opacity:1">
      <path
         id="path908-6-6-1"
         style="fill:#f6ae2d;fill-opacity:1;stroke:none;stroke-width:0.949969;stroke-linecap:round;stroke-linejoin:round;stroke-miterlimit:4;stroke-dasharray:none;stroke-opacity:1"
         d="m 0.33373928,41.104055 c 1.20390742,2.085201 7.38305062,5.11918 9.46828052,3.915258 1.4511482,-0.83783 9.6630422,-8.775661 14.1237022,-14.232639 0.906146,-2.392277 1.774054,-4.180119 2.462276,-4.718703 -0.821634,0.317511 -2.804697,0.169927 -5.311775,-0.238846 -6.956051,1.132638 -17.9480086,4.277596 -19.4000191,5.115895 -2.08519397,1.203911 -2.54637556,8.073809 -1.34246462,10.158992 z M 26.633689,25.934565 c 0.04237,-0.01423 0.08699,-0.04579 0.127481,-0.04814 -0.005,-0.0089 -0.0039,-0.02526 -0.0089,-0.03487 -0.0046,-0.0072 -0.01459,-0.01174 -0.01921,-0.0185 -0.02526,0.03625 -0.05988,0.0703 -0.09841,0.101472 z" />
      <path
         id="path1054-01"
         style="fill:#f6ae2d;fill-opacity:1;stroke:none;stroke-width:0.949969;stroke-linecap:round;stroke-linejoin:round;stroke-miterlimit:4;stroke-dasharray:none;stroke-opacity:1"
         inkscape:transform-center-x="0.15492474"
         inkscape:transform-center-y="-15.16824"
         d="m 27.693556,23.826241 c 0.01032,1.78e-4 0.02277,0.0092 0.03451,0.0096 0.0086,-5.16e-4 0.01708,-0.005 0.02491,-0.006 -0.01886,-0.04056 -0.02918,-0.08821 -0.03721,-0.137835 -0.01067,0.0443 -0.0039,0.09745 -0.02242,0.134242 z M 24.865153,18.92019 c 1.620515,1.983052 2.735217,3.630305 2.85634,4.49504 0.134348,-0.870286 1.256693,-2.515517 2.866748,-4.485164 2.496437,-6.59052 5.265799,-17.6795039 5.265813,-19.3559143 -3e-6,-2.4077898 -5.718242,-6.242197 -8.126039,-6.2421721 -2.407836,3.6e-6 -8.123833,3.8344249 -8.123819,6.24223258 4e-6,1.67556002 2.765538,12.75428582 5.260949,19.34598782 z" />
      <path
         id="path1056-8"
         style="fill:#f6ae2d;fill-opacity:1;stroke:none;stroke-width:0.949969;stroke-linecap:round;stroke-linejoin:round;stroke-miterlimit:4;stroke-dasharray:none;stroke-opacity:1"
         inkscape:transform-center-x="-13.373001"
         inkscape:transform-center-y="9.8166596"
         d="m 31.491697,30.787328 c 4.458358,5.457317 12.68058,13.406548 14.132821,14.245029 2.085223,1.203889 8.265554,-1.830007 9.469426,-3.915205 1.203911,-2.08524 0.74079,-8.95364 -1.344418,-10.157544 -1.451292,-0.837865 -12.432373,-3.98098 -19.388103,-5.115614 -2.524484,0.411189 -4.516271,0.55678 -5.324065,0.228954 0.686813,0.543612 1.550349,2.327355 2.454346,4.714366 z m -2.822259,-4.89897 c 0.04323,0.0035 0.09144,0.03558 0.136376,0.05284 -0.03768,-0.03344 -0.07692,-0.06498 -0.101971,-0.102647 -0.0054,0.0089 -0.02099,0.01637 -0.02668,0.02633 -0.0034,0.0054 -0.0039,0.01672 -0.0078,0.02348 z" />
      <path
         id="path1058-7"
         style="fill:#f6ae2d;fill-opacity:1;stroke:none;stroke-width:0.949969;stroke-linecap:round;stroke-linejoin:round;stroke-miterlimit:4;stroke-dasharray:none;stroke-opacity:1"
         d="m 19.585666,50.676338 c 10e-6,-2.407797 5.717385,-24.261432 8.12521,-24.261414 2.40779,-2.9e-5 8.125161,21.853634 8.125189,24.261406 -10e-6,2.407813 -5.717392,6.242469 -8.125199,6.242476 -2.407811,-3e-6 -8.1252,-3.834677 -8.1252,-6.242468 z"
         sodipodi:nodetypes="sssss"
         inkscape:transform-center-x="0.00894207"
         inkscape:transform-center-y="15.296198" />
      <path
         id="path1060-5"
         style="fill:#f6ae2d;fill-opacity:1;stroke:none;stroke-width:0.949969;stroke-linecap:round;stroke-linejoin:round;stroke-miterlimit:4;stroke-dasharray:none;stroke-opacity:1"
         d="M 9.812071,5.5704833 C 11.897308,6.7743807 27.964381,22.652623 26.760463,24.737838 25.556573,26.823053 3.7720647,20.847659 1.6868636,19.643763 -0.39835536,18.439866 -0.86055452,11.571093 0.34334934,9.4858915 1.5472389,7.4006765 7.7268873,4.366583 9.812071,5.5704833 Z"
         sodipodi:nodetypes="sssss"
         inkscape:transform-center-x="13.537498"
         inkscape:transform-center-y="-9.5315042" />
      <path
         id="path1062-3"
         style="fill:#f6ae2d;fill-opacity:1;stroke:none;stroke-width:0.949969;stroke-linecap:round;stroke-linejoin:round;stroke-miterlimit:4;stroke-dasharray:none;stroke-opacity:1"
         d="m 53.758414,19.661151 c -2.085223,1.203893 -23.869709,7.179286 -25.073613,5.094071 -1.20389,-2.085223 14.863183,-17.9634397 16.948392,-19.1673428 2.085222,-1.2038864 8.264845,1.8301882 9.468738,3.9153996 1.203894,2.0852082 0.741687,8.9539572 -1.343517,10.1578722 z"
         sodipodi:nodetypes="sssss"
         inkscape:transform-center-x="-13.546433"
         inkscape:transform-center-y="-9.516007" />
    </g>
  </g>
</svg>
